<svg width="35" height="35" viewBox="0 0 35 35" xmlns="http://www.w3.org/2000/svg" xmlns:xlink="http://www.w3.org/1999/xlink">
    <defs>
        <path d="M8.066 0a1.26 1.26 0 0 1 1.258 1.175l.003.086v.44h4.694a.41.41 0 0 1 .056.817l-.056.004-1.316-.001-.826 13.227a.41.41 0 0 1-.357.381l-.053.004H2.962a.41.41 0 0 1-.402-.332l-.007-.053-.827-13.227H.41a.41.41 0 0 1-.055-.816l.055-.004h4.694v-.44A1.26 1.26 0 0 1 6.28.003L6.365 0h1.701zm3.817 2.521H2.547l.8 12.791h7.737l.799-12.791zM5.029 4.649a.41.41 0 0 1 .431.325l.008.055.547 7.657a.41.41 0 0 1-.81.113l-.009-.055-.547-7.656a.41.41 0 0 1 .38-.439zm4.434 0a.41.41 0 0 1 .38.439l-.547 7.656-.008.055a.41.41 0 0 1-.81-.113l.546-7.657.008-.055a.41.41 0 0 1 .43-.325zM8.066.82H6.365a.44.44 0 0 0-.437.386l-.004.055v.44h2.582v-.44a.44.44 0 0 0-.384-.437L8.066.82z" id="l1f74wym4a"/>
    </defs>
    <g transform="translate(10.527 9.434)" fill="none" fill-rule="evenodd">
        <mask id="nsoo2gxmvb" fill="#fff">
            <use xlink:href="#l1f74wym4a"/>
        </mask>
        <use fill="#000" fill-rule="nonzero" xlink:href="#l1f74wym4a"/>
        <g mask="url(#nsoo2gxmvb)" fill="#888">
            <path d="M-10.527-9.434h35v35h-35z"/>
        </g>
    </g>
</svg>
