<svg xmlns="http://www.w3.org/2000/svg" width="40" height="40" viewBox="0 0 40 40">
  <g id="Group_21844" data-name="Group 21844" transform="translate(-168 -1789)">
    <circle id="Ellipse_7" data-name="Ellipse 7" cx="20" cy="20" r="20" transform="translate(168 1789)" fill="#fff4f0"/>
    <g id="Group_21841" data-name="Group 21841" transform="translate(852 -11581)">
      <path id="Path_6500" data-name="Path 6500" d="M13.009,2.984v0H12.96l-.035.007-.035.012-.037.012-8.6,3.9A.364.364,0,0,0,4,7.265V17.956a.366.366,0,0,0,.205.332l8.64,4.113a.347.347,0,0,0,.121.032h.017a.347.347,0,0,0,.167-.034l8.643-4.116A.366.366,0,0,0,22,17.954V7.256a.362.362,0,0,0-.294-.359h0L13.146,3.012a.346.346,0,0,0-.138-.028Zm0,.763,7.662,3.477L17.415,8.408a.353.353,0,0,0-.068-.041L10.085,5.073l2.922-1.325Zm-3.8,1.724.041.018.036.017.042.019L16.45,8.758l-3.46,1.259L5.323,7.23,9.206,5.47Zm12.084,2.3V17.72L13.356,21.5V10.658ZM4.71,7.781l7.929,2.884V21.5L4.71,17.723V7.781Z" transform="translate(-677 13377.387)" stroke="#000" stroke-width="0.2"/>
      <g id="Group_21840" data-name="Group 21840" transform="translate(-120 -155.822)">
        <circle id="Ellipse_9" data-name="Ellipse 9" cx="5" cy="5" r="5" transform="translate(-541 13536)" fill="#fdf6f3"/>
        <path id="undo_FILL0_wght400_GRAD0_opsz48" d="M161.125,261.625v-.563h2.709a1.61,1.61,0,0,0,1.13-.436,1.475,1.475,0,0,0,0-2.166,1.61,1.61,0,0,0-1.13-.436h-2.766l1.069,1.069-.394.394L160,257.744,161.744,256l.394.394-1.069,1.069h2.756a2.168,2.168,0,0,1,1.533.6,2.029,2.029,0,0,1,0,2.963,2.167,2.167,0,0,1-1.533.6Z" transform="translate(-699 13282.188)" fill="#d74e1a" stroke="#d74e1a" stroke-width="0.2"/>
      </g>
    </g>
  </g>
</svg>
