<svg xmlns="http://www.w3.org/2000/svg" width="40" height="40" viewBox="0 0 40 40">
  <g id="Group_21838" data-name="Group 21838" transform="translate(627 -13370)">
    <circle id="Ellipse_8" data-name="Ellipse 8" cx="20" cy="20" r="20" transform="translate(-627 13370)" fill="#fff4f0"/>
    <g id="Group_21849" data-name="Group 21849" transform="translate(-4771.6 1899)">
      <g id="Group_21848" data-name="Group 21848" transform="translate(4154.6 11484)">
        <path id="Path_2344" data-name="Path 2344" d="M3.322,12.817H1V1H13.645V12.817H7.323" transform="translate(-1 -1)" fill="none" stroke="#000" stroke-linecap="round" stroke-width="1"/>
        <path id="Path_2345" data-name="Path 2345" d="M16.818,15.744H15V6h4.156l3.117,3.654v6.09H20.521" transform="translate(-2.273 -3.927)" fill="none" stroke="#000" stroke-linecap="round" stroke-width="1"/>
        <path id="Path_2346" data-name="Path 2346" d="M18.74,15.48A1.74,1.74,0,1,0,17,13.74,1.74,1.74,0,0,0,18.74,15.48Z" transform="translate(-2.221 -1.923)" fill="none" stroke="#000" stroke-linecap="round" stroke-linejoin="round" stroke-width="1"/>
        <path id="Path_2347" data-name="Path 2347" d="M5.74,15.48A1.74,1.74,0,1,0,4,13.74,1.74,1.74,0,0,0,5.74,15.48Z" transform="translate(-1.39 -1.923)" fill="none" stroke="#000" stroke-linecap="round" stroke-linejoin="round" stroke-width="1"/>
      </g>
      <circle id="Ellipse_9" data-name="Ellipse 9" cx="5" cy="5" r="5" transform="translate(4151.6 11481.178)" fill="#fdf6f3"/>
      <path id="Path_6504" data-name="Path 6504" d="M8.845,13.6a.223.223,0,0,1-.158-.065L7,11.848a.223.223,0,1,1,.317-.315l1.524,1.524,3.713-3.713a.223.223,0,1,1,.315.317L9,13.531A.223.223,0,0,1,8.845,13.6Z" transform="translate(4146.66 11474.998)" fill="#d74e1a" stroke="#d74e1a" stroke-width="0.5"/>
    </g>
  </g>
</svg>
