<svg xmlns="http://www.w3.org/2000/svg" width="40" height="40" viewBox="0 0 40 40">
  <g id="Group_21837" data-name="Group 21837" transform="translate(882 -13370)">
    <circle id="Ellipse_6" data-name="Ellipse 6" cx="20" cy="20" r="20" transform="translate(-882 13370)" fill="#fff4f0"/>
    <g id="Group_21941" data-name="Group 21941">
      <path id="Path_6496" data-name="Path 6496" d="M19.989,3.753a.5.5,0,0,0-.592-.387,9.106,9.106,0,0,1-7.11-1.454.5.5,0,0,0-.574,0A9.107,9.107,0,0,1,4.6,3.366a.5.5,0,0,0-.6.489v8.019a9.131,9.131,0,0,0,3.8,7.407l3.91,2.8a.5.5,0,0,0,.582,0l3.91-2.8A9.131,9.131,0,0,0,20,11.874V3.855A.493.493,0,0,0,19.989,3.753ZM19,11.874a8.129,8.129,0,0,1-3.381,6.595L12,21.063,8.381,18.469A8.129,8.129,0,0,1,5,11.874V4.453a10.082,10.082,0,0,0,7-1.528,10.086,10.086,0,0,0,7,1.528Z" transform="translate(-874 13378.455)"/>
      <path id="Path_6499" data-name="Path 6499" d="M9.48,15.034a.3.3,0,0,1-.211-.086L7.026,12.7a.3.3,0,1,1,.423-.42L9.48,14.317l4.951-4.951a.3.3,0,1,1,.42.423L9.689,14.948A.3.3,0,0,1,9.48,15.034Z" transform="translate(-872.939 13377.998)" fill="#d74e1a" stroke="#d74e1a" stroke-width="0.5"/>
    </g>
  </g>
</svg>
