<svg xmlns="http://www.w3.org/2000/svg" width="140" height="140" viewBox="0 0 140 140">
  <g id="Group_21862" data-name="Group 21862" transform="translate(-570 -230)" opacity="0.87">
    <circle id="Ellipse_10" data-name="Ellipse 10" cx="70" cy="70" r="70" transform="translate(570 230)" fill="#fff"/>
    <g id="Group_21861" data-name="Group 21861" transform="translate(597.222 237)">
      <path id="Path_6508" data-name="Path 6508" d="M82,166.887H5L15.635,75H71.363Z" transform="translate(-3.94 -59.047)" fill="#d85d2e"/>
      <path id="Path_6509" data-name="Path 6509" d="M82,166.887,71.363,75H15.635L5,166.887ZM18.273,77.127h51.2L79.616,164.76H28.652Z" transform="translate(-3.94 -59.047)" fill="#db8869"/>
      <path id="Path_6510" data-name="Path 6510" d="M15.635,75,5,166.887H26.27Z" transform="translate(-3.94 -59.047)" fill="#d85d2e"/>
      <path id="Path_6511" data-name="Path 6511" d="M55,75v91.887H65.635Z" transform="translate(-43.305 -59.047)" fill="#bb471b"/>
      <path id="Path_6512" data-name="Path 6512" d="M15.635,457,5,467.635H26.27Z" transform="translate(-3.94 -359.795)" fill="#db8869"/>
      <g id="Group_21859" data-name="Group 21859" transform="translate(30.838 23.823)">
        <path id="Path_6513" data-name="Path 6513" d="M222,255.065H145L155.635,187h55.728Z" transform="translate(-145 -171.047)" fill="#e67e39"/>
        <path id="Path_6514" data-name="Path 6514" d="M222,255.065,211.363,187H155.635L145,255.065Zm-63.555-65.938h51.091l9.976,63.811H168.759Z" transform="translate(-145 -171.047)" fill="#d9986c"/>
        <path id="Path_6515" data-name="Path 6515" d="M155.635,187,145,255.065h21.27Z" transform="translate(-145 -171.047)" fill="#e67e39"/>
        <path id="Path_6516" data-name="Path 6516" d="M195,187v68.065h10.635Z" transform="translate(-184.365 -171.047)" fill="#d26a25"/>
        <path id="Path_6517" data-name="Path 6517" d="M155.635,457,145,467.635h21.27Z" transform="translate(-145 -383.618)" fill="#d9986c"/>
        <path id="Path_6518" data-name="Path 6518" d="M288.651,138.588h-2.127V125.826a11.7,11.7,0,1,0-23.4,0v12.762H261V125.826a13.826,13.826,0,1,1,27.651,0Z" transform="translate(-236.327 -112)" fill="#2b6e37"/>
      </g>
      <g id="Group_21860" data-name="Group 21860" transform="translate(0)">
        <path id="Path_6519" data-name="Path 6519" d="M193.4,138.588h-2.127V125.826a11.7,11.7,0,1,0-23.4,0v12.762h-2.127V125.826a13.826,13.826,0,1,1,27.651,0Zm-31.054,58.493h-21.27a1.065,1.065,0,0,1-.808-.362,1.036,1.036,0,0,1-.234-.851L150.666,127.8a1.07,1.07,0,0,1,1.042-.893,1.053,1.053,0,0,1,1.042.893l10.635,68.065a1.116,1.116,0,0,1-.234.851A1.065,1.065,0,0,1,162.344,197.081Zm-20.036-2.127h18.782l-9.38-60.109Z" transform="translate(-110.236 -88.177)" fill="#1d4924"/>
        <path id="Path_6520" data-name="Path 6520" d="M162.348,464.762h-21.27a1.061,1.061,0,0,1-.978-.659,1.044,1.044,0,0,1,.234-1.149l10.635-10.635a1.053,1.053,0,0,1,1.51,0l10.635,10.635a1.052,1.052,0,0,1,.234,1.149A1.113,1.113,0,0,1,162.348,464.762Zm-18.7-2.127H159.8l-8.083-8.061Z" transform="translate(-110.24 -355.859)" fill="#1d4924"/>
        <rect id="Rectangle_10070" data-name="Rectangle 10070" width="2.127" height="57.429" transform="translate(40.409 39.775)" fill="#1d4924"/>
        <path id="Path_6521" data-name="Path 6521" d="M148.651,26.588h-2.127V13.826a11.7,11.7,0,0,0-23.4,0V26.588H121V13.826a13.826,13.826,0,1,1,27.651,0Z" transform="translate(-95.267)" fill="#1d4924"/>
        <path id="Path_6522" data-name="Path 6522" d="M107.884,164.014h-77a1.065,1.065,0,0,1-.808-.362,1.036,1.036,0,0,1-.234-.851L40.479,94.737a1.07,1.07,0,0,1,1.042-.893H69.045L66.514,72.127H12.7L2.3,161.887H26.632v2.127H1.108a1.021,1.021,0,0,1-.787-.362,1.081,1.081,0,0,1-.255-.83L10.7,70.936A1.061,1.061,0,0,1,11.764,70H67.492a1.077,1.077,0,0,1,1.064.936l2.765,23.823a1.081,1.081,0,0,1-.255.83,1.021,1.021,0,0,1-.787.362h-27.8L32.184,161.887h74.509L96.4,95.95H74.49V93.823H97.249a1.037,1.037,0,0,1,1.042.893l10.635,68.065a1.116,1.116,0,0,1-.234.851A1.017,1.017,0,0,1,107.884,164.014Z" transform="translate(-0.048 -55.111)" fill="#1d4924"/>
        <path id="Path_6523" data-name="Path 6523" d="M22.378,164.014H1.108a1.021,1.021,0,0,1-.787-.362,1.081,1.081,0,0,1-.255-.83L10.7,70.936a1.072,1.072,0,0,1,2.127,0l10.635,91.887a1.081,1.081,0,0,1-.255.83A1.11,1.11,0,0,1,22.378,164.014ZM2.3,161.887H21.187L11.743,80.316Z" transform="translate(-0.048 -55.111)" fill="#1d4924"/>
        <path id="Path_6524" data-name="Path 6524" d="M22.348,464.762H1.078A1.061,1.061,0,0,1,.1,464.1a1.044,1.044,0,0,1,.234-1.149l10.635-10.635a1.053,1.053,0,0,1,1.51,0l10.635,10.635a1.052,1.052,0,0,1,.234,1.149A1.113,1.113,0,0,1,22.348,464.762Zm-18.7-2.127H19.8l-8.083-8.061Z" transform="translate(-0.018 -355.859)" fill="#1d4924"/>
        <rect id="Rectangle_10071" data-name="Rectangle 10071" width="2.127" height="81.252" transform="translate(10.631 15.953)" fill="#1d4924"/>
      </g>
    </g>
  </g>
</svg>
